<?xml version="1.0" standalone="no"?>
<!DOCTYPE svg PUBLIC "-//W3C//DTD SVG 20010904//EN"
 "http://www.w3.org/TR/2001/REC-SVG-20010904/DTD/svg10.dtd">
<svg version="1.0" xmlns="http://www.w3.org/2000/svg"
 width="912.000000pt" height="273.000000pt" viewBox="0 0 912.000000 273.000000"
 preserveAspectRatio="xMidYMid meet">

<g transform="translate(0.000000,273.000000) scale(0.100000,-0.100000)"
fill="#000000" stroke="none">
<path d="M1230 2303 c-19 -11 -141 -81 -271 -156 -130 -74 -254 -146 -275
-157 -21 -12 -70 -43 -108 -68 -58 -38 -72 -53 -94 -101 l-24 -56 7 -414 c6
-409 7 -415 30 -460 24 -48 61 -76 185 -147 115 -65 143 -81 235 -134 50 -29
108 -63 130 -75 22 -12 65 -37 95 -54 172 -99 187 -98 411 28 551 309 572 323
609 396 l25 50 -3 419 c-3 385 -4 422 -22 455 -31 60 -74 92 -311 226 -73 41
-204 116 -219 125 -8 5 -64 37 -123 71 -97 55 -115 62 -175 66 -53 4 -75 0
-102 -14z m508 -615 c-7 -19 -629 -19 -635 0 -4 9 64 12 317 12 253 0 321 -3
318 -12z m-158 -78 c0 -20 -7 -20 -315 -20 -308 0 -315 0 -315 20 0 20 7 20
315 20 308 0 315 0 315 -20z m160 -155 c0 -13 -42 -15 -314 -15 -286 0 -339 4
-319 24 3 3 147 6 320 6 272 0 313 -2 313 -15z m-962 -331 c49 -34 15 -104
-50 -104 -25 0 -28 -3 -28 -35 0 -28 -4 -35 -20 -35 -19 0 -20 7 -20 95 l0 95
48 0 c27 0 57 -7 70 -16z m177 10 c37 -14 58 -101 35 -145 -26 -47 -101 -59
-142 -22 -36 33 -35 116 2 153 20 20 71 27 105 14z m186 -5 c32 -17 6 -39 -38
-32 -45 8 -42 -15 5 -31 41 -14 55 -29 55 -60 0 -53 -58 -80 -112 -51 -33 16
-36 22 -23 43 7 10 14 10 37 -2 29 -15 58 -11 52 7 -3 11 -15 18 -59 36 -39
15 -48 58 -18 83 25 20 71 24 101 7z m184 -9 c0 -9 -11 -16 -27 -18 -28 -3
-28 -4 -28 -78 0 -67 -2 -74 -20 -74 -18 0 -20 7 -20 75 l0 75 -30 0 c-24 0
-30 4 -30 20 0 19 5 21 78 18 60 -2 77 -6 77 -18z m65 -15 c0 -34 1 -35 40
-35 39 0 40 1 40 35 0 28 4 35 20 35 19 0 20 -7 20 -95 0 -88 -1 -95 -20 -95
-17 0 -20 7 -20 40 l0 40 -40 0 -40 0 0 -40 c0 -33 -3 -40 -20 -40 -19 0 -20
7 -20 95 0 88 1 95 20 95 16 0 20 -7 20 -35z m210 -60 c0 -88 -1 -95 -20 -95
-19 0 -20 7 -20 95 0 88 1 95 20 95 19 0 20 -7 20 -95z m122 38 l33 -58 3 58
c3 49 6 57 22 57 18 0 20 -7 20 -95 0 -92 -1 -95 -23 -95 -17 0 -31 15 -57 58
l-35 57 -3 -57 c-3 -50 -6 -58 -22 -58 -18 0 -20 7 -20 95 0 94 0 95 24 95 19
0 32 -12 58 -57z m168 25 l1 -33 29 33 c16 17 39 32 50 32 27 0 26 -4 -12 -50
l-31 -40 37 -47 c37 -47 37 -48 15 -51 -17 -3 -33 7 -56 32 l-33 36 0 -35 c0
-31 -3 -35 -25 -35 -25 0 -25 0 -25 95 0 95 0 95 25 95 21 0 25 -5 25 -32z"/>
<path d="M700 1074 c0 -21 4 -25 23 -22 14 2 23 11 25 26 3 18 -1 22 -22 22
-21 0 -26 -5 -26 -26z"/>
<path d="M874 1087 c-3 -8 -4 -32 -2 -53 3 -37 5 -39 38 -39 l35 0 0 50 c0 49
-1 50 -33 53 -21 2 -34 -2 -38 -11z"/>
<path d="M3557 1780 c-94 -24 -181 -89 -230 -172 -55 -95 -77 -254 -53 -387
27 -154 94 -247 215 -305 63 -30 72 -31 191 -31 120 0 128 1 190 32 108 52
167 125 202 252 23 83 24 239 2 325 -33 129 -110 222 -221 266 -65 26 -227 37
-296 20z m254 -175 c55 -39 88 -103 101 -197 20 -152 -19 -287 -100 -343 -36
-25 -55 -30 -117 -33 -113 -6 -172 23 -215 105 -66 127 -45 368 38 446 52 48
81 57 169 55 72 -3 86 -6 124 -33z"/>
<path d="M4425 1777 c-66 -22 -101 -44 -137 -87 -100 -116 -64 -296 71 -365
27 -13 95 -36 152 -50 136 -35 165 -48 183 -84 21 -40 20 -69 -4 -109 -25 -41
-54 -52 -138 -52 -82 0 -134 22 -200 84 l-49 46 -46 -58 c-26 -31 -47 -60 -47
-64 0 -24 78 -89 140 -117 60 -28 86 -34 168 -38 182 -10 282 32 337 142 58
115 33 252 -59 324 -40 32 -118 59 -247 85 -101 21 -105 23 -129 61 -28 45
-25 72 13 109 58 59 192 57 277 -5 23 -17 48 -28 55 -25 8 3 30 29 49 57 33
50 34 54 19 71 -9 10 -46 33 -82 51 -60 29 -74 32 -176 34 -70 2 -124 -2 -150
-10z"/>
<path d="M2490 1335 l0 -445 85 0 85 0 0 165 0 165 93 0 c268 0 377 82 377
284 0 72 -4 90 -27 134 -36 64 -74 95 -151 121 -54 19 -85 21 -262 21 l-200 0
0 -445z m427 272 c31 -29 37 -41 41 -89 5 -66 -14 -110 -61 -138 -26 -16 -50
-20 -134 -20 l-103 0 0 140 0 140 110 0 110 0 37 -33z"/>
<path d="M4960 1710 l0 -70 130 0 130 0 0 -375 0 -375 85 0 85 0 2 373 3 372
128 3 127 3 0 69 0 70 -345 0 -345 0 0 -70z"/>
<path d="M5800 1335 l0 -445 85 0 85 0 0 200 0 200 205 0 205 0 0 -200 0 -200
85 0 85 0 0 445 0 445 -85 0 -85 0 -2 -167 -3 -168 -200 0 -200 0 -3 168 -2
167 -85 0 -85 0 0 -445z"/>
<path d="M6790 1335 l0 -445 85 0 85 0 0 445 0 445 -85 0 -85 0 0 -445z"/>
<path d="M7200 1335 l0 -445 85 0 85 0 0 305 c0 168 3 305 8 305 4 0 31 -39
61 -88 30 -48 64 -103 76 -122 12 -19 73 -117 135 -217 l113 -183 89 0 88 0 0
445 0 445 -80 0 -80 0 0 -284 c0 -178 -4 -287 -10 -291 -9 -5 -72 86 -155 225
-16 28 -51 83 -76 123 -25 39 -67 107 -93 150 l-48 77 -99 0 -99 0 0 -445z"/>
<path d="M8180 1335 l0 -445 85 0 85 0 0 189 c0 105 4 192 9 195 11 7 90 -84
317 -370 9 -12 35 -14 114 -12 l103 3 -186 232 -185 232 164 203 c90 112 164
206 164 211 0 4 -40 7 -90 7 l-89 0 -102 -127 c-151 -188 -200 -244 -210 -237
-5 3 -9 86 -9 185 l0 179 -85 0 -85 0 0 -445z"/>
</g>
</svg>
