<?xml version="1.0" standalone="no"?>
<!DOCTYPE svg PUBLIC "-//W3C//DTD SVG 20010904//EN"
 "http://www.w3.org/TR/2001/REC-SVG-20010904/DTD/svg10.dtd">
<svg version="1.0" xmlns="http://www.w3.org/2000/svg"
 width="500.000000pt" height="500.000000pt" viewBox="0 0 500.000000 500.000000"
 preserveAspectRatio="xMidYMid meet">

<g transform="translate(0.000000,500.000000) scale(0.100000,-0.100000)"
fill="#000000" stroke="none">
<path d="M2362 4775 c-66 -18 5 20 -672 -370 -316 -183 -676 -390 -800 -461
-294 -167 -358 -229 -419 -399 l-22 -60 3 -1001 3 -1001 44 -89 c69 -139 120
-182 401 -343 129 -74 494 -284 811 -467 316 -182 600 -340 630 -350 76 -26
243 -26 319 0 30 11 303 162 605 336 303 174 667 383 810 466 206 118 272 161
321 209 75 75 119 151 145 253 19 77 20 106 17 1033 l-3 954 -22 58 c-12 32
-38 84 -57 115 -65 106 -118 146 -461 342 -176 101 -534 307 -795 459 -261
151 -502 286 -535 299 -76 32 -240 40 -323 17z m1126 -1502 l3 -33 -755 0
-756 0 0 28 c0 16 3 32 7 35 3 4 342 6 752 5 l746 -3 3 -32z m-378 -188 l0
-35 -750 0 -750 0 0 35 0 35 750 0 750 0 0 -35z m380 -375 l0 -30 -755 0 -755
0 0 30 0 30 755 0 755 0 0 -30z m-1844 -785 c100 -76 111 -278 21 -368 -74
-74 -218 -76 -296 -4 -40 37 -61 95 -61 173 0 142 49 213 163 233 61 10 134
-4 173 -34z m412 17 c44 -20 49 -35 22 -72 l-22 -31 -33 21 c-58 36 -145 20
-145 -25 0 -21 38 -41 98 -54 71 -15 109 -36 127 -71 19 -38 19 -103 -1 -141
-41 -80 -211 -93 -294 -23 -36 31 -37 40 -6 79 l24 29 35 -31 c66 -58 163 -49
155 15 -3 30 -26 44 -110 67 -79 21 -109 49 -115 108 -3 27 0 59 7 77 29 69
163 96 258 52z m-880 -2 c48 -22 72 -64 72 -126 0 -91 -63 -143 -172 -144
l-58 0 0 -80 0 -80 -50 0 -50 0 0 225 0 225 108 0 c84 0 116 -5 150 -20z
m1322 -20 l0 -40 -60 0 -60 0 0 -185 0 -185 -50 0 -50 0 0 185 0 185 -65 0
-65 0 0 40 0 40 175 0 175 0 0 -40z m160 -45 l0 -85 95 0 95 0 0 85 0 85 50 0
50 0 0 -225 0 -225 -50 0 -50 0 0 100 0 100 -95 0 -95 0 0 -100 0 -100 -50 0
-50 0 0 225 0 225 50 0 50 0 0 -85z m490 -140 l0 -225 -45 0 -45 0 0 225 0
225 45 0 45 0 0 -225z m305 81 l90 -145 3 145 3 144 44 0 45 0 0 -226 0 -225
-52 3 -52 3 -90 147 -91 147 -3 -149 -3 -150 -44 0 -45 0 0 225 0 225 53 0 52
0 90 -144z m395 54 l5 -84 70 87 70 87 48 0 c26 0 47 -4 47 -10 0 -5 -36 -54
-79 -107 l-79 -97 31 -41 c17 -22 57 -72 89 -112 32 -39 58 -74 58 -77 0 -3
-25 -6 -54 -6 l-55 0 -73 90 -73 90 -3 -90 -3 -90 -49 0 -50 0 0 226 0 225 48
-3 47 -3 5 -85z"/>
<path d="M1459 1865 c-39 -21 -52 -63 -47 -150 3 -65 7 -79 29 -101 32 -31
103 -37 143 -11 64 42 60 215 -5 261 -29 20 -85 20 -120 1z"/>
<path d="M1020 1815 l0 -65 49 0 c59 0 81 18 81 65 0 47 -22 65 -81 65 l-49 0
0 -65z"/>
</g>
</svg>
